<?xml version="1.0" encoding="utf-8"?>
<svg xmlns="http://www.w3.org/2000/svg" height="32" width="32" viewBox="0 0 32 32">
  <g>
    <ellipse cy="16" cx="16" ry="16" rx="16" fill="#FFFFFF" />
    <path id="path1" transform="rotate(0,16,16) translate(7,7) scale(0.5625,0.5625)  " fill="#000000" d="M2,2L2,25 30,25 30,2z M1,0L31,0C31.552002,0,32,0.44702148,32,1L32,26C32,26.552979,31.552002,27,31,27L17,27 17,30 25,30 25,32 7,32 7,30 15,30 15,27 1,27C0.44799805,27,0,26.552979,0,26L0,1C0,0.44702148,0.44799805,0,1,0z" />
  </g>
</svg>
