<?xml version="1.0" encoding="utf-8"?>
<svg xmlns="http://www.w3.org/2000/svg" height="24" width="24" viewBox="0 0 24 24">
  <g>
    <path id="path1" transform="rotate(0,12,12) translate(1,1) scale(0.6875,0.6875)  " fill="#FFFFFF" d="M9.9999998,9.9999998L9.9999998,22.000001 22.000001,22.000001 22.000001,9.9999998z M0,0L8.9999998,0 8.9999998,2 3.4137864,2 9.4130714,7.9999998 22.607013,7.9999998 28.586009,2.0210028 23.000001,2.0210028 23.000001,0.021003723 32.000001,0.021003723 32.000001,8.9999998 30.000001,8.9999998 30.000001,3.4358039 24.000001,9.4350793 24.000001,22.586001 30.000001,28.586001 30.000001,23.000001 32.000001,23.000001 32.000001,32.000001 23.000001,32.000001 23.000001,30.000001 28.585795,30.000001 22.58507,24.000001 9.4350097,24.000001 3.4350052,30.000001 8.9999998,30.000001 8.9999998,32.000001 0.021003723,32.000001 0.021003723,23.000001 2.0210028,23.000001 2.0210028,28.585797 7.9999998,22.606082 7.9999998,9.4149368 2,3.4142222 2,8.9999998 0,8.9999998z" />
  </g>
</svg>
