<?xml version="1.0" encoding="utf-8"?>
<svg xmlns="http://www.w3.org/2000/svg" height="24" width="24" viewBox="0 0 24 24">
  <g>
    <path id="path1" transform="rotate(0,12,12) translate(2.16875052452087,1) scale(0.6875,0.6875)  " fill="#FFFFFF" d="M19.300004,28.799988C18.700028,28.799988 18.300002,29.199997 18.300002,29.699997 18.300002,30.199997 18.700028,30.599991 19.300004,30.599991 19.89998,30.599991 20.300004,30.199997 20.300004,29.699997 20.300004,29.199997 19.89998,28.799988 19.300004,28.799988z M9.2999955,28.799988C8.7000199,28.799988 8.2999945,29.199997 8.2999945,29.699997 8.2999945,30.199997 8.7000199,30.599991 9.2999955,30.599991 9.899972,30.599991 10.299996,30.199997 10.299996,29.699997 10.299996,29.199997 9.7999955,28.799988 9.2999955,28.799988z M14.299999,28.199997C13.299999,28.199997 12.599986,28.899994 12.599986,29.699997 12.599986,30.5 13.399975,31.199997 14.299999,31.199997 15.3,31.199997 16.000012,30.5 16.000012,29.699997 16.000012,28.899994 15.200025,28.199997 14.299999,28.199997z M3.7999912,3.2999878L3.7999912,27.399994 24.700032,27.399994 24.700032,3.2999878z M0,0L28.599999,0 28.599999,32 0,32z" />
  </g>
</svg>
